<svg xmlns="http://www.w3.org/2000/svg" width="38" height="39" fill="none">
<symbol id="decor">
<path fill="#F8AFA6" d="M32.244 6.102a9.476 9.476 0 0 0-.578 3.079 9.387 9.387 0 0 0 .488 3.094l.12.356-.356-.12a9.281 9.281 0 0 0-3.061-.49 9.688 9.688 0 0 0-3.112.577l-.374.131.134-.374a9.459 9.459 0 0 0 .578-3.079 9.385 9.385 0 0 0-.488-3.093l-.116-.356.356.12a9.28 9.28 0 0 0 3.06.49 9.671 9.671 0 0 0 3.11-.578l.373-.131-.134.374Zm5.398 13.207a9.516 9.516 0 0 0-2.586 1.768 9.343 9.343 0 0 0-1.843 2.532l-.167.335-.168-.335a9.184 9.184 0 0 0-1.82-2.51 9.627 9.627 0 0 0-2.608-1.79l-.36-.17.36-.168a9.517 9.517 0 0 0 2.585-1.768 9.313 9.313 0 0 0 1.843-2.535l.168-.335.167.335a9.204 9.204 0 0 0 1.82 2.51 9.61 9.61 0 0 0 2.608 1.793l.36.17-.36.171v-.003Zm-5.86 9.805a9.673 9.673 0 0 0 .578 3.11l.132.373-.374-.135a9.47 9.47 0 0 0-3.079-.577 9.384 9.384 0 0 0-3.094.488l-.356.12.12-.357a9.28 9.28 0 0 0 .49-3.06 9.69 9.69 0 0 0-.577-3.112l-.131-.374.373.134a9.461 9.461 0 0 0 3.08.578 9.386 9.386 0 0 0 3.093-.488l.356-.117-.12.356a9.281 9.281 0 0 0-.49 3.061Zm-8.227 4.32a9.203 9.203 0 0 0-2.51 1.82 9.535 9.535 0 0 0-1.79 2.61l-.17.358-.171-.359a9.514 9.514 0 0 0-1.769-2.585 9.342 9.342 0 0 0-2.53-1.843l-.336-.168.335-.167a9.188 9.188 0 0 0 2.51-1.82 9.583 9.583 0 0 0 1.79-2.609l.17-.359.17.36a9.448 9.448 0 0 0 1.77 2.585 9.31 9.31 0 0 0 2.534 1.843l.335.167-.335.168h-.003Zm-11.06-7.35a9.456 9.456 0 0 0-.577 3.078 9.385 9.385 0 0 0 .488 3.094l.117.356-.357-.12a9.28 9.28 0 0 0-3.06-.49 9.668 9.668 0 0 0-3.11.577l-.373.132.134-.374a9.474 9.474 0 0 0 .578-3.08 9.386 9.386 0 0 0-.488-3.093l-.12-.356.357.12a9.283 9.283 0 0 0 3.06.49 9.69 9.69 0 0 0 3.112-.577l.374-.132-.134.374Zm-2.947-6.607a9.45 9.45 0 0 0-2.585 1.768 9.358 9.358 0 0 0-1.843 2.534l-.167.335-.168-.335a9.203 9.203 0 0 0-1.82-2.51 9.537 9.537 0 0 0-2.608-1.79l-.36-.17.36-.17a9.516 9.516 0 0 0 2.585-1.769 9.357 9.357 0 0 0 1.843-2.534l.168-.335.167.335a9.186 9.186 0 0 0 1.82 2.51 9.578 9.578 0 0 0 2.608 1.79l.36.17-.36.17Zm2.25-10.108a9.69 9.69 0 0 0 .578 3.112l.132.374-.374-.135a9.461 9.461 0 0 0-3.08-.577 9.387 9.387 0 0 0-3.093.488l-.356.116.12-.356a9.281 9.281 0 0 0 .49-3.06 9.672 9.672 0 0 0-.577-3.11l-.132-.373.374.134a9.474 9.474 0 0 0 3.079.578 9.385 9.385 0 0 0 3.094-.488l.356-.12-.12.356a9.28 9.28 0 0 0-.49 3.061Zm11.586-4.024a9.186 9.186 0 0 0-2.51 1.819 9.629 9.629 0 0 0-1.79 2.61l-.17.358-.17-.359a9.449 9.449 0 0 0-1.77-2.585 9.357 9.357 0 0 0-2.534-1.843l-.335-.168.335-.167a9.203 9.203 0 0 0 2.51-1.82A9.533 9.533 0 0 0 18.74.581l.17-.359.171.36a9.516 9.516 0 0 0 1.769 2.585 9.358 9.358 0 0 0 2.534 1.843l.335.167-.335.168Z"/>
</symbol>
</svg>