<svg xmlns="http://www.w3.org/2000/svg" width="119" height="120" fill="none">
<symbol id="flower">
<mask id="a" fill="#fff">
<path   d="M118.104 69.909c-.51 2.852-6.606 4.694-15.542 4.694h-.226c-3.34-2.72-7.398-5.487-11.965-8.085a88.928 88.928 0 0 0-3.935-2.116 104.32 104.32 0 0 0 4.425-.66c5.049-.88 9.823-2.107 14.004-3.562 8.341 2.957 13.776 6.697 13.229 9.72l.01.009Zm-7.068 19.145c-.821 1.398-2.991 1.691-4.671 1.691-3.086 0-7.2-.935-11.776-2.598-1.775-2.975-3.983-6.13-6.55-9.34-.084-.105-.178-.218-.263-.322a50.635 50.635 0 0 0-.66-.812c-.322-.387-.643-.775-.973-1.153a92.537 92.537 0 0 0-2.953-3.305c1.425.311 2.878.604 4.378.86 4.973.859 9.927 1.331 14.39 1.369 6.813 5.591 10.625 10.947 9.068 13.6l.01.01ZM79.859 114.84a2.57 2.57 0 0 1-.86.141c-2.98 0-7.18-4.458-11.153-11.287.718-4.203 1.114-9.039 1.114-14.224a96.63 96.63 0 0 0-.104-4.402 97.217 97.217 0 0 0 2.793 3.439c2.416 2.833 4.907 5.44 7.37 7.716.934.86 1.85 1.681 2.765 2.447 1.566 8.604 1 15.121-1.925 16.17Zm-20.354 3.542c-3.124 0-5.917-5.932-7.427-14.555 2.152-3.731 4.218-8.142 5.992-12.96a109.5 109.5 0 0 0 1.435-4.165c.434 1.37.915 2.758 1.434 4.166 1.774 4.807 3.84 9.218 5.992 12.959-1.51 8.623-4.303 14.555-7.426 14.555Zm-19.495-3.391c-.302 0-.595-.047-.86-.142-2.934-1.048-3.5-7.566-1.924-16.17 3.33-2.796 6.803-6.262 10.125-10.163a89.368 89.368 0 0 0 2.793-3.438 95.526 95.526 0 0 0-.104 4.401c0 5.186.406 10.022 1.114 14.225-3.964 6.829-8.172 11.287-11.145 11.287Zm-16.73-9.7c-.85 0-1.53-.208-2.03-.624-1.67-1.379-1.368-5.072.83-10.135.784-1.803 1.775-3.72 2.945-5.695 4.123-1.52 8.606-3.608 13.069-6.149a104.851 104.851 0 0 0 3.822-2.285 90.469 90.469 0 0 0-1.623 4.099c-1.803 4.892-3.105 9.587-3.898 13.79-5.227 4.363-10.002 6.999-13.106 6.999h-.01ZM12.634 90.754c-1.68 0-3.85-.292-4.67-1.69-1.558-2.664 2.254-8.01 9.067-13.601 4.454-.038 9.408-.51 14.39-1.37 1.5-.264 2.963-.557 4.388-.86a92.537 92.537 0 0 0-2.953 3.306c-3.303 3.882-6.171 7.859-8.427 11.627-4.586 1.672-8.7 2.607-11.795 2.607v-.019Zm3.803-16.141c-8.927 0-15.023-1.842-15.542-4.695-.537-3.022 4.888-6.762 13.22-9.719 4.077 1.426 8.833 2.654 14.013 3.552 1.482.255 2.963.481 4.426.67a94.677 94.677 0 0 0-3.935 2.116c-4.567 2.597-8.615 5.365-11.956 8.085h-.236l.01-.01ZM7.964 30.4c.821-1.398 2.991-1.691 4.671-1.691 3.086 0 7.2.935 11.777 2.597 2.198 3.674 5.048 7.641 8.435 11.627a92.637 92.637 0 0 0 2.954 3.306 94.993 94.993 0 0 0-4.388-.86 98.199 98.199 0 0 0-7.71-1.029 82.858 82.858 0 0 0-6.68-.34C10.21 38.42 6.398 33.073 7.955 30.41l.01-.01ZM21.25 14.796c.5-.415 1.18-.623 2.03-.623 3.104 0 7.888 2.644 13.115 6.999.793 4.203 2.086 8.897 3.898 13.78a103.585 103.585 0 0 0 1.623 4.109 90.931 90.931 0 0 0-3.822-2.286c-4.454-2.54-8.927-4.619-13.05-6.14-4.464-7.555-6.19-13.865-3.803-15.839h.01Zm17.9-10.182a2.56 2.56 0 0 1 .86-.141c2.972 0 7.18 4.458 11.144 11.277-.718 4.203-1.114 9.04-1.114 14.234 0 .5 0 1.001.01 1.502 0 .35.01.699.028 1.048 0 .133 0 .274.01.406.009.492.037.973.056 1.446a97.33 97.33 0 0 0-2.793-3.439c-3.322-3.9-6.794-7.367-10.125-10.163-1.576-8.604-1.01-15.112 1.925-16.17ZM79 4.473a2.6 2.6 0 0 1 .859.141c2.038.728 3.038 4.307 2.736 9.804-.104 1.965-.377 4.1-.783 6.348-3.331 2.805-6.822 6.271-10.153 10.181a101.493 101.493 0 0 0-2.794 3.439c.067-1.436.104-2.9.104-4.402 0-.52 0-1.03-.01-1.549v-.17c0-.425-.018-.85-.028-1.275-.009-.368-.028-.718-.037-1.077 0-.113 0-.227-.01-.33-.16-3.533-.51-6.839-1.019-9.833C71.838 8.921 76.037 4.473 79.02 4.473h-.02Zm16.73 9.7c.84 0 1.529.217 2.03.623 2.386 1.974.67 8.284-3.794 15.84-4.124 1.52-8.587 3.598-13.041 6.14a90.871 90.871 0 0 0-3.822 2.285 90.814 90.814 0 0 0 1.623-4.109c1.755-4.76 3.076-9.473 3.879-13.77 5.227-4.374 10.02-7.019 13.125-7.019v.01Zm10.644 14.536c1.68 0 3.85.293 4.671 1.69 1.085 1.861-.481 5.224-4.293 9.248-1.359 1.435-2.954 2.9-4.737 4.354-4.463.038-9.436.51-14.419 1.37-1.5.254-2.963.547-4.378.859.99-1.058 1.972-2.163 2.953-3.306 3.388-3.977 6.238-7.944 8.436-11.627 4.577-1.662 8.691-2.598 11.777-2.598l-.01.01ZM75.461 59.727c3.03-1.01 6.285-2.361 9.616-3.995 1.859.217 3.755.481 5.652.812 4.643.803 9.012 1.917 12.843 3.192-3.879 1.294-8.247 2.38-12.843 3.174-1.897.33-3.784.595-5.652.812-3.34-1.634-6.596-2.984-9.625-3.995h.01Zm.434 4.553c-.877 0-1.726-.02-2.547-.057a44.836 44.836 0 0 0-4.2-2.824c1.539-.284 3.19-.7 4.945-1.238 2.916.917 6.096 2.173 9.37 3.722-2.632.255-5.18.387-7.568.387v.01Zm-1.396.83c.462.01.915.02 1.396.02 2.831 0 5.889-.18 9.03-.53a89.31 89.31 0 0 1 5.02 2.674c4.087 2.323 7.805 4.836 10.956 7.33-4.123-.095-8.634-.558-13.163-1.342a95.919 95.919 0 0 1-5.596-1.143c-2.576-2.663-5.17-5.025-7.653-6.99l.01-.018Zm18.759 22.546c-3.784-1.464-7.85-3.4-11.908-5.705a88.547 88.547 0 0 1-4.86-2.965c-1.5-3.382-3.114-6.46-4.765-9.134 2.944 1.124 6.312 2.154 9.993 3.023a97.008 97.008 0 0 1 3.783 4.193c3.03 3.561 5.653 7.179 7.757 10.579v.01Zm-20.939.312a98.001 98.001 0 0 1-3.538-4.42c-.227-3.627-.67-7.075-1.293-10.173 2.368 2.05 5.17 4.147 8.304 6.187a94.09 94.09 0 0 1 2.113 5.223c1.614 4.373 2.831 8.661 3.624 12.572-.255-.218-.5-.444-.764-.671-2.794-2.503-5.672-5.45-8.455-8.718h.01ZM57.44 73.951c.839-1.605 1.537-3.126 2.075-4.552.538 1.426 1.236 2.947 2.076 4.552-.406 2.976-1.095 6.272-2.076 9.738-.972-3.466-1.67-6.772-2.076-9.738Zm-4.804-1.567a46.18 46.18 0 0 0 2.463-2.409c.377-.397.727-.784 1.057-1.162.01 1.52.141 3.193.368 4.978-1.416 2.654-3.208 5.525-5.332 8.453.283-3.589.784-6.933 1.435-9.86h.01Zm-1.113.982c-.614 3.05-1.057 6.48-1.284 10.191a90.567 90.567 0 0 1-3.538 4.411c-3.03 3.56-6.18 6.753-9.21 9.389.793-3.91 2-8.199 3.614-12.572a88.578 88.578 0 0 1 2.114-5.223c3.076-2.012 5.888-4.109 8.294-6.187l.01-.01Zm-2.869-4.052a42.153 42.153 0 0 0 4.558-2.173c-.52 1.436-.982 3.06-1.387 4.827-2.284 2.05-4.973 4.127-7.936 6.13 1.51-3.268 3.133-6.243 4.765-8.784Zm-1.35.529c-1.65 2.673-3.274 5.761-4.765 9.143a96.17 96.17 0 0 1-4.86 2.956c-4.066 2.314-8.143 4.25-11.936 5.714 2.142-3.457 4.784-7.065 7.785-10.588a111.235 111.235 0 0 1 3.784-4.193c3.68-.87 7.049-1.899 9.993-3.032Zm-1.358-4.78.642-.028a59.591 59.591 0 0 0 2-.151 36.156 36.156 0 0 0 2.482-.321 41.45 41.45 0 0 0-2.954 4.033c-2.83 1.143-6.105 2.21-9.663 3.126 2.548-2.569 5.096-4.817 7.502-6.65l-.01-.008Zm-2.812.067c.472 0 .934 0 1.396-.02-2.481 1.965-5.067 4.327-7.643 6.99-1.812.425-3.68.812-5.596 1.143-4.529.784-9.049 1.247-13.172 1.35 3.16-2.493 6.87-5.005 10.955-7.329 1.68-.954 3.36-1.851 5.02-2.673 3.142.35 6.2.53 9.03.53l.01.009Zm-27.648-5.394c3.822-1.275 8.181-2.38 12.814-3.183a93.281 93.281 0 0 1 5.643-.812c3.34 1.634 6.596 2.975 9.625 3.995-3.03 1.011-6.285 2.362-9.625 3.996a101.4 101.4 0 0 1-5.643-.813c-4.633-.802-8.992-1.907-12.814-3.183Zm.972-14.885h.236c3.34 2.72 7.398 5.478 11.955 8.075a100 100 0 0 0 3.935 2.116 106.66 106.66 0 0 0-4.425.661c-5.18.898-9.937 2.135-14.013 3.552C5.785 56.298.349 52.567.896 49.535c.133-.746.652-1.416 1.491-2.011 2.388-1.681 7.446-2.692 14.05-2.692l.02.019Zm14.834 1.37c1.915.33 3.783.717 5.595 1.142 2.576 2.673 5.162 5.025 7.643 6.99-.453-.01-.915-.02-1.396-.02-2.84 0-5.888.18-9.03.53a92.874 92.874 0 0 1-5.02-2.673c-4.086-2.324-7.804-4.836-10.956-7.33 1.783.038 3.633.151 5.53.33 2.49.227 5.067.577 7.634 1.02v.01Zm16.013 3.4c-2.944-1.134-6.313-2.163-9.993-3.032a91.743 91.743 0 0 1-3.784-4.194c-3.03-3.56-5.652-7.178-7.757-10.579 3.784 1.464 7.851 3.4 11.909 5.705a101.99 101.99 0 0 1 4.86 2.957c1.5 3.381 3.113 6.47 4.765 9.143Zm4.53-2.088a44.03 44.03 0 0 0 1.377 4.798 44.947 44.947 0 0 0-4.558-2.172c-1.632-2.531-3.246-5.507-4.756-8.775 3.01 2.04 5.69 4.128 7.936 6.15Zm-.312-1.445c-2.369-2.04-5.162-4.137-8.304-6.177a102.044 102.044 0 0 1-2.114-5.223c-1.614-4.373-2.83-8.662-3.614-12.572 3.03 2.635 6.18 5.828 9.21 9.389a103.454 103.454 0 0 1 3.538 4.41c.227 3.703.67 7.132 1.284 10.173Zm.349-29.091c1.934 3.504 3.803 7.547 5.407 11.891a90.797 90.797 0 0 1 1.783 5.337c-1.066 3.551-1.84 6.923-2.321 9.993-1.52-2.72-3.416-5.63-5.652-8.605a90.848 90.848 0 0 1-.17-5.62c0-4.637.349-9.067.953-12.996Zm15.645 29.091c.613-3.041 1.057-6.48 1.283-10.182a92.36 92.36 0 0 1 3.53-4.401c3.038-3.57 6.2-6.763 9.238-9.408-.802 3.967-2.039 8.255-3.643 12.59a87.306 87.306 0 0 1-2.114 5.224c-3.132 2.04-5.925 4.137-8.294 6.177Zm2.869 4.071a45.155 45.155 0 0 0-4.568 2.172c.086-.245.18-.49.255-.746a42.09 42.09 0 0 0 1.123-4.052c2.246-2.021 4.935-4.108 7.936-6.149-1.51 3.259-3.133 6.234-4.756 8.766l.01.009Zm1.34-.529c1.65-2.673 3.265-5.752 4.765-9.134a94.846 94.846 0 0 1 4.86-2.965c4.057-2.305 8.124-4.241 11.908-5.705-2.104 3.4-4.727 7.018-7.757 10.578a97.61 97.61 0 0 1-3.784 4.194c-3.68.87-7.048 1.899-9.992 3.032Zm1.368 4.78a45.52 45.52 0 0 0-5.124.5 41.417 41.417 0 0 0 2.954-4.033c2.83-1.153 6.105-2.22 9.662-3.127-2.548 2.57-5.095 4.818-7.502 6.65l.01.01Zm2.802-.067c-.471 0-.934 0-1.396.02 2.482-1.965 5.067-4.317 7.653-6.99a92.822 92.822 0 0 1 5.595-1.143c4.54-.794 9.059-1.247 13.202-1.35-3.209 2.521-6.945 5.024-10.994 7.329-1.68.953-3.359 1.85-5.02 2.673-3.142-.35-6.19-.53-9.03-.53l-.01-.009Zm-6.746 3.722c1.33-.775 2.745-1.729 4.199-2.825a73.39 73.39 0 0 1 2.538-.047c2.387 0 4.945.133 7.577.388-3.284 1.548-6.454 2.805-9.37 3.73a43.937 43.937 0 0 0-4.945-1.237v-.01Zm-3.398 1.68a20.477 20.477 0 0 0 2.209-1.02c1.434.209 2.99.558 4.652 1.02-1.661.464-3.218.804-4.652 1.02a21.348 21.348 0 0 0-2.209-1.02Zm2.218 4.827c1.529.255 3.246.425 5.124.5 2.406 1.833 4.944 4.081 7.502 6.65-3.558-.906-6.832-1.974-9.663-3.126a41.433 41.433 0 0 0-2.954-4.033l-.009.01Zm-2.642 1.313c-.33-.803-.68-1.52-1.029-2.182.718.236 1.5.444 2.36.624a37.026 37.026 0 0 1 2.84 3.665c-1.557-.69-2.954-1.398-4.162-2.116l-.01.01Zm.981 2.749c-.16-.52-.33-1.01-.49-1.483a44.184 44.184 0 0 0 4.567 2.182c1.632 2.54 3.246 5.506 4.755 8.774-3.01-2.04-5.699-4.127-7.945-6.148a50.868 50.868 0 0 0-.877-3.316l-.01-.01Zm-3.463-1.162a22.264 22.264 0 0 0-.226-2.408 23.14 23.14 0 0 0 2.01 1.397c.301.746.585 1.55.849 2.418.198.643.387 1.313.566 2.003a37.043 37.043 0 0 1-3.199-3.41Zm-.349 6.338c.226-1.785.35-3.457.368-4.978a43.504 43.504 0 0 0 3.548 3.599c.67 2.975 1.142 6.31 1.425 9.851-2.123-2.937-3.926-5.809-5.332-8.472h-.009Zm-5.086-9.625c.274-.264.519-.52.745-.774 0 .33.02.68.057 1.048a16.2 16.2 0 0 1-1.104 1.785c.066-.746.16-1.436.302-2.05v-.009Zm-1.425-.963c.34-.151.67-.312.962-.473a9.15 9.15 0 0 0-.302 1.011c-.48.425-1.028.86-1.66 1.294.32-.68.65-1.285 1-1.823v-.01Zm-1.264.481a20.455 20.455 0 0 0-1.038 2.182c-1.208.718-2.614 1.426-4.171 2.116a37.008 37.008 0 0 1 2.84-3.665c.859-.18 1.651-.387 2.369-.633Zm-3.671-4.977c.764.406 1.51.746 2.208 1.02-.708.274-1.444.614-2.208 1.02a36 36 0 0 1-4.652-1.02c1.66-.463 3.218-.813 4.652-1.02Zm-1.19-.661c-1.537.283-3.188.699-4.934 1.237-2.916-.916-6.096-2.182-9.38-3.73a79.052 79.052 0 0 1 7.578-.388c.877 0 1.726.019 2.538.047a44.827 44.827 0 0 0 4.199 2.824v.01Zm2.096-2.107a21.85 21.85 0 0 0 1.708 1.682c-.784.018-1.614.094-2.5.217a37.902 37.902 0 0 1-3.992-2.522c1.764.123 3.368.33 4.784.623Zm-3.87-5.072a43.058 43.058 0 0 0 2.954 4.033c-1.528-.255-3.246-.415-5.114-.5-2.406-1.833-4.954-4.08-7.502-6.65 3.558.907 6.832 1.974 9.663 3.127v-.01Zm8.06-.226c-1-1.153-2.18-2.352-3.53-3.58-.65-2.928-1.142-6.262-1.434-9.852 2.114 2.928 3.916 5.8 5.331 8.454-.235 1.794-.358 3.457-.368 4.978Zm2.906.708a21.293 21.293 0 0 0-.632 2.333 20.785 20.785 0 0 0-1.397-1.974c-.028-1.389.047-2.938.226-4.61.746 1.512 1.36 2.948 1.812 4.26l-.01-.009Zm2.529-5.828a45.554 45.554 0 0 0-1.482 3.098c-.217.5-.406.983-.585 1.445-.538-1.426-1.236-2.947-2.076-4.562.406-2.975 1.095-6.271 2.076-9.738.981 3.467 1.67 6.773 2.076 9.748l-.01.01Zm.707-1.294c-.48-3.07-1.255-6.45-2.33-10.012a95.66 95.66 0 0 1 1.783-5.336c1.604-4.345 3.463-8.387 5.407-11.892.613 3.93.953 8.36.953 12.997 0 1.917-.056 3.797-.18 5.62-2.188 2.928-4.104 5.846-5.652 8.614l.02.01Zm4.105 2.843c-1.34 1.219-2.529 2.418-3.52 3.58a42.688 42.688 0 0 0-.377-4.996c1.434-2.702 3.237-5.554 5.331-8.445-.283 3.6-.783 6.943-1.434 9.87v-.009Zm-1.764 5.96c-.746.454-1.416.926-2.01 1.389.113-.747.188-1.55.226-2.409.878-1.086 1.953-2.22 3.17-3.39a35.479 35.479 0 0 1-1.387 4.401v.01Zm-.34 2.749c.368-.652.708-1.38 1.038-2.182a37.795 37.795 0 0 1 4.161-2.116c-.953 1.389-1.906 2.626-2.83 3.665-.86.18-1.652.387-2.37.633Zm-.255 1.87c-.377.028-.745.066-1.076.123.208-.246.416-.52.614-.803a18.56 18.56 0 0 1 2.01-.67c-.529.519-1.048.972-1.548 1.35Zm1.312-.01a21.848 21.848 0 0 0 1.708-1.68c1.415-.294 3.02-.501 4.784-.624-1.397.992-2.737 1.842-3.992 2.522a22.373 22.373 0 0 0-2.5-.218Zm-1.048 1.616a8.273 8.273 0 0 0-.877-.199c.292-.16.575-.35.868-.567.217-.009.434-.009.641-.009.482 0 1 .028 1.53.076-.69.311-1.35.566-1.973.755-.057-.019-.123-.038-.18-.056h-.009Zm1.048 2.597a22.209 22.209 0 0 0 2.5-.217c1.255.67 2.595 1.52 3.992 2.522a37.926 37.926 0 0 1-4.784-.624 20.237 20.237 0 0 0-1.708-1.681Zm-2.378-.132c.34.056.689.085 1.066.113.5.378 1.02.831 1.548 1.35a16.564 16.564 0 0 1-2-.66 9.404 9.404 0 0 0-.614-.803Zm-.906 1.03c.292.16.613.32.953.472.35.529.68 1.142 1.01 1.823-.623-.425-1.18-.86-1.652-1.285a9.778 9.778 0 0 0-.302-1.01h-.01Zm-1.255 1.728c.038-.369.056-.727.066-1.068.226.255.462.52.745.775.142.623.236 1.313.302 2.059a14.112 14.112 0 0 1-1.104-1.776l-.01.01Zm-5.813-2.645c.378-.028.746-.066 1.076-.123-.208.246-.406.52-.604.803-.595.246-1.274.472-2.01.67.528-.519 1.047-.972 1.548-1.35h-.01Zm-1.311.019a18.923 18.923 0 0 0-1.708 1.681c-1.416.284-3.02.491-4.785.624 1.397-1.002 2.737-1.852 3.992-2.522.887.123 1.727.198 2.5.217Zm1.925-1.417c-.283.17-.576.35-.869.567-.217.01-.434.019-.641.019-.481 0-1-.029-1.529-.076a19.021 19.021 0 0 1 1.972-.765c.368.114.717.19 1.067.255Zm-.869-1.946c.293.218.586.407.869.567-.34.066-.699.151-1.067.255a16.322 16.322 0 0 1-1.972-.755 17.421 17.421 0 0 1 1.529-.076c.207 0 .424 0 .641.01Zm.718-1.52a9.4 9.4 0 0 0 .613.803c-.34-.057-.689-.095-1.066-.123-.5-.378-1.02-.831-1.548-1.35.736.198 1.406.415 2 .67ZM53.7 53.625s.01.038.02.057c.028.057.047.113.075.17.066.151.123.283.188.425.246.548.5 1.058.755 1.52a24.367 24.367 0 0 0-2.368-.632 38.495 38.495 0 0 1-2.83-3.665c1.556.69 2.962 1.398 4.17 2.116l-.01.01Zm4.454 2.465a9.274 9.274 0 0 0-.736-.774 15.547 15.547 0 0 1-.311-2.059c.443.614.802 1.2 1.104 1.766-.038.378-.057.727-.066 1.067h.01Zm1.784-1.208c-.17.33-.312.66-.425.982a10.215 10.215 0 0 0-.415-.963c.085-.633.226-1.313.425-2.05.198.727.34 1.407.424 2.04l-.01-.01Zm1.67.434c-.274.264-.519.52-.745.784 0-.34-.02-.69-.066-1.067.301-.567.67-1.162 1.103-1.776-.066.746-.17 1.436-.301 2.059h.009Zm1.425.963c-.35.152-.67.312-.972.482.113-.312.217-.652.302-1.01.481-.425 1.028-.86 1.66-1.285a17.04 17.04 0 0 1-.99 1.823v-.01Zm-6.37-.529c.085.36.19.69.302 1.011a9.931 9.931 0 0 0-.953-.472 16.13 16.13 0 0 1-1.01-1.823c.623.425 1.18.86 1.652 1.285h.01Zm7.634 5.261a10.419 10.419 0 0 0-.868-.566c.34-.066.699-.142 1.066-.255.623.189 1.284.444 1.973.765-.529.047-1.048.075-1.529.075-.208 0-.415 0-.642-.019Zm-2.293-9.284c-.538.68-1.01 1.35-1.406 1.983a20.38 20.38 0 0 0-.632-2.342c.264-.756.566-1.55.934-2.39.264-.614.566-1.247.878-1.889.18 1.681.255 3.25.226 4.647v-.01Zm-5.822.302c.029.86.104 1.662.217 2.409a22.335 22.335 0 0 0-2-1.389 37.013 37.013 0 0 1-1.397-4.41c1.217 1.17 2.293 2.304 3.18 3.39Zm3.275 14.432a14.744 14.744 0 0 1-.368-1.813c.17-.33.31-.661.424-.982.123.32.255.642.425.972a15.779 15.779 0 0 1-.425 2.04c-.019-.075-.038-.141-.056-.217Zm2.32 5.932a38.262 38.262 0 0 1-1.81-4.26c.273-.822.48-1.605.631-2.342.397.642.868 1.303 1.406 1.993.029 1.388-.047 2.937-.226 4.609Zm-26.222-8.472c3.283-1.55 6.454-2.806 9.38-3.722 1.745.539 3.406.954 4.934 1.238a46.583 46.583 0 0 0-4.199 2.814c-.82.038-1.66.057-2.538.057-2.388 0-4.945-.132-7.577-.387Zm18.92 5.506c-.463.491-.963.982-1.482 1.483a37.539 37.539 0 0 1 1.396-4.44 21.061 21.061 0 0 0 2-1.397 22.657 22.657 0 0 0-.226 2.418 29.71 29.71 0 0 1-1.698 1.936h.01Zm2.556-1.634c.538-.68 1.01-1.35 1.406-1.983.151.736.359 1.51.633 2.333-.453 1.313-1.067 2.748-1.812 4.26-.18-1.672-.255-3.221-.227-4.61ZM64.11 5.73a6.1 6.1 0 0 0 .122.264l.142.312c1.047 2.456 1.925 5.658 2.576 9.35-2.142 3.732-4.209 8.142-5.992 12.95-.52 1.407-1 2.805-1.434 4.175-.434-1.37-.916-2.758-1.435-4.175-1.774-4.808-3.84-9.218-5.992-12.95 1.51-8.613 4.303-14.554 7.427-14.554.141 0 .273.01.415.037 1.462.255 2.916 1.87 4.18 4.59h-.01ZM51.088 83.888c2.236-2.976 4.142-5.885 5.652-8.605.481 3.06 1.255 6.432 2.33 9.993a95.658 95.658 0 0 1-1.783 5.337c-1.604 4.344-3.463 8.397-5.407 11.891-.604-3.929-.953-8.359-.953-12.996 0-1.918.057-3.797.17-5.62h-.01Zm17.032 5.62c0 4.637-.35 9.067-.953 12.996-1.934-3.495-3.803-7.547-5.407-11.891a90.775 90.775 0 0 1-1.783-5.337c1.066-3.551 1.84-6.923 2.32-9.993 1.52 2.72 3.417 5.63 5.663 8.614.103 1.833.16 3.703.16 5.61Zm30.054 8.406c.038.132.076.264.113.387.048.18.104.368.151.548 0 .019 0 .038.01.047.613 2.55.5 4.458-.387 5.497a2.81 2.81 0 0 1-.293.293c-.5.416-1.179.623-2.028.623-3.105 0-7.889-2.644-13.117-6.998-.783-4.204-2.085-8.898-3.897-13.79a102.826 102.826 0 0 0-1.623-4.1c1.227.765 2.5 1.54 3.822 2.286 4.454 2.531 8.917 4.619 13.04 6.14 1.926 3.268 3.35 6.3 4.143 8.85.02.066.047.141.066.217Zm4.407-53.035c8.927 0 15.022 1.842 15.541 4.704.378 2.106-2.264 4.75-7.247 7.235-1.774.888-3.774 1.719-5.944 2.493-4.086-1.426-8.861-2.654-14.05-3.56a92.738 92.738 0 0 0-4.427-.662c1.312-.67 2.614-1.37 3.935-2.115 4.445-2.532 8.521-5.3 11.947-8.076h.254l-.009-.019Zm3.595 14.876a51.757 51.757 0 0 0 5.086-2.182c5.426-2.71 8.163-5.6 7.7-8.141-.585-3.287-6.407-5.29-15.617-5.394 1.491-1.265 2.85-2.53 4.03-3.778 4.152-4.373 5.727-8.01 4.416-10.248-.821-1.407-2.642-2.115-5.417-2.115-2.953 0-6.822.821-11.115 2.304 4.34-7.613 5.718-13.818 3.057-16.019-.66-.538-1.529-.822-2.576-.822-3.124 0-7.795 2.475-12.9 6.603.321-1.927.529-3.75.633-5.47.33-5.978-.84-9.756-3.303-10.644a3.314 3.314 0 0 0-1.151-.198c-3.161 0-7.38 4.203-11.38 10.834-.614-3.184-1.406-5.97-2.34-8.199-.01-.038-.029-.076-.038-.104-.076-.17-.151-.33-.217-.5a7.295 7.295 0 0 1-.18-.397c-.009-.028-.028-.047-.037-.076C63.289 1.99 61.467.26 59.533.26c-3.482 0-6.473 5.639-8.115 14.234-4.01-6.63-8.228-10.834-11.38-10.834-.406 0-.793.066-1.151.199-3.275 1.17-4.124 7.47-2.69 16.094-5.105-4.118-9.776-6.583-12.89-6.583-1.047 0-1.925.274-2.576.822-2.67 2.2-1.283 8.406 3.058 16.019-4.303-1.483-8.153-2.305-11.116-2.305-2.765 0-4.596.709-5.417 2.116-1.736 2.975 1.708 8.33 8.427 14.026-5.549.066-9.86.812-12.54 2.125-1.765.86-2.822 1.965-3.058 3.268-.604 3.372 4.492 7.245 12.767 10.333C4.54 62.806-.557 66.68.047 70.06c.595 3.287 6.398 5.28 15.598 5.393C8.927 81.15 5.473 86.504 7.22 89.48c.82 1.408 2.642 2.116 5.416 2.116 2.963 0 6.832-.831 11.135-2.314a50.087 50.087 0 0 0-2.482 4.911c-2.387 5.517-2.595 9.455-.594 11.117.66.548 1.528.822 2.576.822 3.114 0 7.785-2.465 12.89-6.583-1.435 8.623-.585 14.923 2.689 16.094.368.133.745.199 1.151.199 3.152 0 7.37-4.203 11.38-10.834 1.642 8.586 4.633 14.225 8.115 14.225s6.474-5.639 8.115-14.225c4.001 6.631 8.229 10.834 11.38 10.834.406 0 .793-.066 1.152-.199 3.274-1.171 4.123-7.471 2.689-16.094 5.096 4.118 9.766 6.583 12.89 6.583 1.057 0 1.925-.274 2.576-.822 1.576-1.303 1.774-4.023.632-7.81-.028-.114-.066-.218-.094-.331-.028-.085-.066-.18-.094-.274-.746-2.267-1.925-4.846-3.501-7.613 4.293 1.483 8.153 2.314 11.115 2.314 2.765 0 4.596-.708 5.417-2.116 1.736-2.975-1.708-8.33-8.427-14.026 9.201-.113 15.013-2.106 15.598-5.393.604-3.381-4.501-7.254-12.786-10.343l.019.038Z"/></mask><path fill="#F8AFA6" stroke="#000" stroke-width="2" d="M118.104 69.909c-.51 2.852-6.606 4.694-15.542 4.694h-.226c-3.34-2.72-7.398-5.487-11.965-8.085a88.928 88.928 0 0 0-3.935-2.116 104.32 104.32 0 0 0 4.425-.66c5.049-.88 9.823-2.107 14.004-3.562 8.341 2.957 13.776 6.697 13.229 9.72l.01.009Zm-7.068 19.145c-.821 1.398-2.991 1.691-4.671 1.691-3.086 0-7.2-.935-11.776-2.598-1.775-2.975-3.983-6.13-6.55-9.34-.084-.105-.178-.218-.263-.322a50.635 50.635 0 0 0-.66-.812c-.322-.387-.643-.775-.973-1.153a92.537 92.537 0 0 0-2.953-3.305c1.425.311 2.878.604 4.378.86 4.973.859 9.927 1.331 14.39 1.369 6.813 5.591 10.625 10.947 9.068 13.6l.01.01ZM79.859 114.84a2.57 2.57 0 0 1-.86.141c-2.98 0-7.18-4.458-11.153-11.287.718-4.203 1.114-9.039 1.114-14.224a96.63 96.63 0 0 0-.104-4.402 97.217 97.217 0 0 0 2.793 3.439c2.416 2.833 4.907 5.44 7.37 7.716.934.86 1.85 1.681 2.765 2.447 1.566 8.604 1 15.121-1.925 16.17Zm-20.354 3.542c-3.124 0-5.917-5.932-7.427-14.555 2.152-3.731 4.218-8.142 5.992-12.96a109.5 109.5 0 0 0 1.435-4.165c.434 1.37.915 2.758 1.434 4.166 1.774 4.807 3.84 9.218 5.992 12.959-1.51 8.623-4.303 14.555-7.426 14.555Zm-19.495-3.391c-.302 0-.595-.047-.86-.142-2.934-1.048-3.5-7.566-1.924-16.17 3.33-2.796 6.803-6.262 10.125-10.163a89.368 89.368 0 0 0 2.793-3.438 95.526 95.526 0 0 0-.104 4.401c0 5.186.406 10.022 1.114 14.225-3.964 6.829-8.172 11.287-11.145 11.287Zm-16.73-9.7c-.85 0-1.53-.208-2.03-.624-1.67-1.379-1.368-5.072.83-10.135.784-1.803 1.775-3.72 2.945-5.695 4.123-1.52 8.606-3.608 13.069-6.149a104.851 104.851 0 0 0 3.822-2.285 90.469 90.469 0 0 0-1.623 4.099c-1.803 4.892-3.105 9.587-3.898 13.79-5.227 4.363-10.002 6.999-13.106 6.999h-.01ZM12.634 90.754c-1.68 0-3.85-.292-4.67-1.69-1.558-2.664 2.254-8.01 9.067-13.601 4.454-.038 9.408-.51 14.39-1.37 1.5-.264 2.963-.557 4.388-.86a92.537 92.537 0 0 0-2.953 3.306c-3.303 3.882-6.171 7.859-8.427 11.627-4.586 1.672-8.7 2.607-11.795 2.607v-.019Zm3.803-16.141c-8.927 0-15.023-1.842-15.542-4.695-.537-3.022 4.888-6.762 13.22-9.719 4.077 1.426 8.833 2.654 14.013 3.552 1.482.255 2.963.481 4.426.67a94.677 94.677 0 0 0-3.935 2.116c-4.567 2.597-8.615 5.365-11.956 8.085h-.236l.01-.01ZM7.964 30.4c.821-1.398 2.991-1.691 4.671-1.691 3.086 0 7.2.935 11.777 2.597 2.198 3.674 5.048 7.641 8.435 11.627a92.637 92.637 0 0 0 2.954 3.306 94.993 94.993 0 0 0-4.388-.86 98.199 98.199 0 0 0-7.71-1.029 82.858 82.858 0 0 0-6.68-.34C10.21 38.42 6.398 33.073 7.955 30.41l.01-.01ZM21.25 14.796c.5-.415 1.18-.623 2.03-.623 3.104 0 7.888 2.644 13.115 6.999.793 4.203 2.086 8.897 3.898 13.78a103.585 103.585 0 0 0 1.623 4.109 90.931 90.931 0 0 0-3.822-2.286c-4.454-2.54-8.927-4.619-13.05-6.14-4.464-7.555-6.19-13.865-3.803-15.839h.01Zm17.9-10.182a2.56 2.56 0 0 1 .86-.141c2.972 0 7.18 4.458 11.144 11.277-.718 4.203-1.114 9.04-1.114 14.234 0 .5 0 1.001.01 1.502 0 .35.01.699.028 1.048 0 .133 0 .274.01.406.009.492.037.973.056 1.446a97.33 97.33 0 0 0-2.793-3.439c-3.322-3.9-6.794-7.367-10.125-10.163-1.576-8.604-1.01-15.112 1.925-16.17ZM79 4.473a2.6 2.6 0 0 1 .859.141c2.038.728 3.038 4.307 2.736 9.804-.104 1.965-.377 4.1-.783 6.348-3.331 2.805-6.822 6.271-10.153 10.181a101.493 101.493 0 0 0-2.794 3.439c.067-1.436.104-2.9.104-4.402 0-.52 0-1.03-.01-1.549v-.17c0-.425-.018-.85-.028-1.275-.009-.368-.028-.718-.037-1.077 0-.113 0-.227-.01-.33-.16-3.533-.51-6.839-1.019-9.833C71.838 8.921 76.037 4.473 79.02 4.473h-.02Zm16.73 9.7c.84 0 1.529.217 2.03.623 2.386 1.974.67 8.284-3.794 15.84-4.124 1.52-8.587 3.598-13.041 6.14a90.871 90.871 0 0 0-3.822 2.285 90.814 90.814 0 0 0 1.623-4.109c1.755-4.76 3.076-9.473 3.879-13.77 5.227-4.374 10.02-7.019 13.125-7.019v.01Zm10.644 14.536c1.68 0 3.85.293 4.671 1.69 1.085 1.861-.481 5.224-4.293 9.248-1.359 1.435-2.954 2.9-4.737 4.354-4.463.038-9.436.51-14.419 1.37-1.5.254-2.963.547-4.378.859.99-1.058 1.972-2.163 2.953-3.306 3.388-3.977 6.238-7.944 8.436-11.627 4.577-1.662 8.691-2.598 11.777-2.598l-.01.01ZM75.461 59.727c3.03-1.01 6.285-2.361 9.616-3.995 1.859.217 3.755.481 5.652.812 4.643.803 9.012 1.917 12.843 3.192-3.879 1.294-8.247 2.38-12.843 3.174-1.897.33-3.784.595-5.652.812-3.34-1.634-6.596-2.984-9.625-3.995h.01Zm.434 4.553c-.877 0-1.726-.02-2.547-.057a44.836 44.836 0 0 0-4.2-2.824c1.539-.284 3.19-.7 4.945-1.238 2.916.917 6.096 2.173 9.37 3.722-2.632.255-5.18.387-7.568.387v.01Zm-1.396.83c.462.01.915.02 1.396.02 2.831 0 5.889-.18 9.03-.53a89.31 89.31 0 0 1 5.02 2.674c4.087 2.323 7.805 4.836 10.956 7.33-4.123-.095-8.634-.558-13.163-1.342a95.919 95.919 0 0 1-5.596-1.143c-2.576-2.663-5.17-5.025-7.653-6.99l.01-.018Zm18.759 22.546c-3.784-1.464-7.85-3.4-11.908-5.705a88.547 88.547 0 0 1-4.86-2.965c-1.5-3.382-3.114-6.46-4.765-9.134 2.944 1.124 6.312 2.154 9.993 3.023a97.008 97.008 0 0 1 3.783 4.193c3.03 3.561 5.653 7.179 7.757 10.579v.01Zm-20.939.312a98.001 98.001 0 0 1-3.538-4.42c-.227-3.627-.67-7.075-1.293-10.173 2.368 2.05 5.17 4.147 8.304 6.187a94.09 94.09 0 0 1 2.113 5.223c1.614 4.373 2.831 8.661 3.624 12.572-.255-.218-.5-.444-.764-.671-2.794-2.503-5.672-5.45-8.455-8.718h.01ZM57.44 73.951c.839-1.605 1.537-3.126 2.075-4.552.538 1.426 1.236 2.947 2.076 4.552-.406 2.976-1.095 6.272-2.076 9.738-.972-3.466-1.67-6.772-2.076-9.738Zm-4.804-1.567a46.18 46.18 0 0 0 2.463-2.409c.377-.397.727-.784 1.057-1.162.01 1.52.141 3.193.368 4.978-1.416 2.654-3.208 5.525-5.332 8.453.283-3.589.784-6.933 1.435-9.86h.01Zm-1.113.982c-.614 3.05-1.057 6.48-1.284 10.191a90.567 90.567 0 0 1-3.538 4.411c-3.03 3.56-6.18 6.753-9.21 9.389.793-3.91 2-8.199 3.614-12.572a88.578 88.578 0 0 1 2.114-5.223c3.076-2.012 5.888-4.109 8.294-6.187l.01-.01Zm-2.869-4.052a42.153 42.153 0 0 0 4.558-2.173c-.52 1.436-.982 3.06-1.387 4.827-2.284 2.05-4.973 4.127-7.936 6.13 1.51-3.268 3.133-6.243 4.765-8.784Zm-1.35.529c-1.65 2.673-3.274 5.761-4.765 9.143a96.17 96.17 0 0 1-4.86 2.956c-4.066 2.314-8.143 4.25-11.936 5.714 2.142-3.457 4.784-7.065 7.785-10.588a111.235 111.235 0 0 1 3.784-4.193c3.68-.87 7.049-1.899 9.993-3.032Zm-1.358-4.78.642-.028a59.591 59.591 0 0 0 2-.151 36.156 36.156 0 0 0 2.482-.321 41.45 41.45 0 0 0-2.954 4.033c-2.83 1.143-6.105 2.21-9.663 3.126 2.548-2.569 5.096-4.817 7.502-6.65l-.01-.008Zm-2.812.067c.472 0 .934 0 1.396-.02-2.481 1.965-5.067 4.327-7.643 6.99-1.812.425-3.68.812-5.596 1.143-4.529.784-9.049 1.247-13.172 1.35 3.16-2.493 6.87-5.005 10.955-7.329 1.68-.954 3.36-1.851 5.02-2.673 3.142.35 6.2.53 9.03.53l.01.009Zm-27.648-5.394c3.822-1.275 8.181-2.38 12.814-3.183a93.281 93.281 0 0 1 5.643-.812c3.34 1.634 6.596 2.975 9.625 3.995-3.03 1.011-6.285 2.362-9.625 3.996a101.4 101.4 0 0 1-5.643-.813c-4.633-.802-8.992-1.907-12.814-3.183Zm.972-14.885h.236c3.34 2.72 7.398 5.478 11.955 8.075a100 100 0 0 0 3.935 2.116 106.66 106.66 0 0 0-4.425.661c-5.18.898-9.937 2.135-14.013 3.552C5.785 56.298.349 52.567.896 49.535c.133-.746.652-1.416 1.491-2.011 2.388-1.681 7.446-2.692 14.05-2.692l.02.019Zm14.834 1.37c1.915.33 3.783.717 5.595 1.142 2.576 2.673 5.162 5.025 7.643 6.99-.453-.01-.915-.02-1.396-.02-2.84 0-5.888.18-9.03.53a92.874 92.874 0 0 1-5.02-2.673c-4.086-2.324-7.804-4.836-10.956-7.33 1.783.038 3.633.151 5.53.33 2.49.227 5.067.577 7.634 1.02v.01Zm16.013 3.4c-2.944-1.134-6.313-2.163-9.993-3.032a91.743 91.743 0 0 1-3.784-4.194c-3.03-3.56-5.652-7.178-7.757-10.579 3.784 1.464 7.851 3.4 11.909 5.705a101.99 101.99 0 0 1 4.86 2.957c1.5 3.381 3.113 6.47 4.765 9.143Zm4.53-2.088a44.03 44.03 0 0 0 1.377 4.798 44.947 44.947 0 0 0-4.558-2.172c-1.632-2.531-3.246-5.507-4.756-8.775 3.01 2.04 5.69 4.128 7.936 6.15Zm-.312-1.445c-2.369-2.04-5.162-4.137-8.304-6.177a102.044 102.044 0 0 1-2.114-5.223c-1.614-4.373-2.83-8.662-3.614-12.572 3.03 2.635 6.18 5.828 9.21 9.389a103.454 103.454 0 0 1 3.538 4.41c.227 3.703.67 7.132 1.284 10.173Zm.349-29.091c1.934 3.504 3.803 7.547 5.407 11.891a90.797 90.797 0 0 1 1.783 5.337c-1.066 3.551-1.84 6.923-2.321 9.993-1.52-2.72-3.416-5.63-5.652-8.605a90.848 90.848 0 0 1-.17-5.62c0-4.637.349-9.067.953-12.996Zm15.645 29.091c.613-3.041 1.057-6.48 1.283-10.182a92.36 92.36 0 0 1 3.53-4.401c3.038-3.57 6.2-6.763 9.238-9.408-.802 3.967-2.039 8.255-3.643 12.59a87.306 87.306 0 0 1-2.114 5.224c-3.132 2.04-5.925 4.137-8.294 6.177Zm2.869 4.071a45.155 45.155 0 0 0-4.568 2.172c.086-.245.18-.49.255-.746a42.09 42.09 0 0 0 1.123-4.052c2.246-2.021 4.935-4.108 7.936-6.149-1.51 3.259-3.133 6.234-4.756 8.766l.01.009Zm1.34-.529c1.65-2.673 3.265-5.752 4.765-9.134a94.846 94.846 0 0 1 4.86-2.965c4.057-2.305 8.124-4.241 11.908-5.705-2.104 3.4-4.727 7.018-7.757 10.578a97.61 97.61 0 0 1-3.784 4.194c-3.68.87-7.048 1.899-9.992 3.032Zm1.368 4.78a45.52 45.52 0 0 0-5.124.5 41.417 41.417 0 0 0 2.954-4.033c2.83-1.153 6.105-2.22 9.662-3.127-2.548 2.57-5.095 4.818-7.502 6.65l.01.01Zm2.802-.067c-.471 0-.934 0-1.396.02 2.482-1.965 5.067-4.317 7.653-6.99a92.822 92.822 0 0 1 5.595-1.143c4.54-.794 9.059-1.247 13.202-1.35-3.209 2.521-6.945 5.024-10.994 7.329-1.68.953-3.359 1.85-5.02 2.673-3.142-.35-6.19-.53-9.03-.53l-.01-.009Zm-6.746 3.722c1.33-.775 2.745-1.729 4.199-2.825a73.39 73.39 0 0 1 2.538-.047c2.387 0 4.945.133 7.577.388-3.284 1.548-6.454 2.805-9.37 3.73a43.937 43.937 0 0 0-4.945-1.237v-.01Zm-3.398 1.68a20.477 20.477 0 0 0 2.209-1.02c1.434.209 2.99.558 4.652 1.02-1.661.464-3.218.804-4.652 1.02a21.348 21.348 0 0 0-2.209-1.02Zm2.218 4.827c1.529.255 3.246.425 5.124.5 2.406 1.833 4.944 4.081 7.502 6.65-3.558-.906-6.832-1.974-9.663-3.126a41.433 41.433 0 0 0-2.954-4.033l-.009.01Zm-2.642 1.313c-.33-.803-.68-1.52-1.029-2.182.718.236 1.5.444 2.36.624a37.026 37.026 0 0 1 2.84 3.665c-1.557-.69-2.954-1.398-4.162-2.116l-.01.01Zm.981 2.749c-.16-.52-.33-1.01-.49-1.483a44.184 44.184 0 0 0 4.567 2.182c1.632 2.54 3.246 5.506 4.755 8.774-3.01-2.04-5.699-4.127-7.945-6.148a50.868 50.868 0 0 0-.877-3.316l-.01-.01Zm-3.463-1.162a22.264 22.264 0 0 0-.226-2.408 23.14 23.14 0 0 0 2.01 1.397c.301.746.585 1.55.849 2.418.198.643.387 1.313.566 2.003a37.043 37.043 0 0 1-3.199-3.41Zm-.349 6.338c.226-1.785.35-3.457.368-4.978a43.504 43.504 0 0 0 3.548 3.599c.67 2.975 1.142 6.31 1.425 9.851-2.123-2.937-3.926-5.809-5.332-8.472h-.009Zm-5.086-9.625c.274-.264.519-.52.745-.774 0 .33.02.68.057 1.048a16.2 16.2 0 0 1-1.104 1.785c.066-.746.16-1.436.302-2.05v-.009Zm-1.425-.963c.34-.151.67-.312.962-.473a9.15 9.15 0 0 0-.302 1.011c-.48.425-1.028.86-1.66 1.294.32-.68.65-1.285 1-1.823v-.01Zm-1.264.481a20.455 20.455 0 0 0-1.038 2.182c-1.208.718-2.614 1.426-4.171 2.116a37.008 37.008 0 0 1 2.84-3.665c.859-.18 1.651-.387 2.369-.633Zm-3.671-4.977c.764.406 1.51.746 2.208 1.02-.708.274-1.444.614-2.208 1.02a36 36 0 0 1-4.652-1.02c1.66-.463 3.218-.813 4.652-1.02Zm-1.19-.661c-1.537.283-3.188.699-4.934 1.237-2.916-.916-6.096-2.182-9.38-3.73a79.052 79.052 0 0 1 7.578-.388c.877 0 1.726.019 2.538.047a44.827 44.827 0 0 0 4.199 2.824v.01Zm2.096-2.107a21.85 21.85 0 0 0 1.708 1.682c-.784.018-1.614.094-2.5.217a37.902 37.902 0 0 1-3.992-2.522c1.764.123 3.368.33 4.784.623Zm-3.87-5.072a43.058 43.058 0 0 0 2.954 4.033c-1.528-.255-3.246-.415-5.114-.5-2.406-1.833-4.954-4.08-7.502-6.65 3.558.907 6.832 1.974 9.663 3.127v-.01Zm8.06-.226c-1-1.153-2.18-2.352-3.53-3.58-.65-2.928-1.142-6.262-1.434-9.852 2.114 2.928 3.916 5.8 5.331 8.454-.235 1.794-.358 3.457-.368 4.978Zm2.906.708a21.293 21.293 0 0 0-.632 2.333 20.785 20.785 0 0 0-1.397-1.974c-.028-1.389.047-2.938.226-4.61.746 1.512 1.36 2.948 1.812 4.26l-.01-.009Zm2.529-5.828a45.554 45.554 0 0 0-1.482 3.098c-.217.5-.406.983-.585 1.445-.538-1.426-1.236-2.947-2.076-4.562.406-2.975 1.095-6.271 2.076-9.738.981 3.467 1.67 6.773 2.076 9.748l-.01.01Zm.707-1.294c-.48-3.07-1.255-6.45-2.33-10.012a95.66 95.66 0 0 1 1.783-5.336c1.604-4.345 3.463-8.387 5.407-11.892.613 3.93.953 8.36.953 12.997 0 1.917-.056 3.797-.18 5.62-2.188 2.928-4.104 5.846-5.652 8.614l.02.01Zm4.105 2.843c-1.34 1.219-2.529 2.418-3.52 3.58a42.688 42.688 0 0 0-.377-4.996c1.434-2.702 3.237-5.554 5.331-8.445-.283 3.6-.783 6.943-1.434 9.87v-.009Zm-1.764 5.96c-.746.454-1.416.926-2.01 1.389.113-.747.188-1.55.226-2.409.878-1.086 1.953-2.22 3.17-3.39a35.479 35.479 0 0 1-1.387 4.401v.01Zm-.34 2.749c.368-.652.708-1.38 1.038-2.182a37.795 37.795 0 0 1 4.161-2.116c-.953 1.389-1.906 2.626-2.83 3.665-.86.18-1.652.387-2.37.633Zm-.255 1.87c-.377.028-.745.066-1.076.123.208-.246.416-.52.614-.803a18.56 18.56 0 0 1 2.01-.67c-.529.519-1.048.972-1.548 1.35Zm1.312-.01a21.848 21.848 0 0 0 1.708-1.68c1.415-.294 3.02-.501 4.784-.624-1.397.992-2.737 1.842-3.992 2.522a22.373 22.373 0 0 0-2.5-.218Zm-1.048 1.616a8.273 8.273 0 0 0-.877-.199c.292-.16.575-.35.868-.567.217-.009.434-.009.641-.009.482 0 1 .028 1.53.076-.69.311-1.35.566-1.973.755-.057-.019-.123-.038-.18-.056h-.009Zm1.048 2.597a22.209 22.209 0 0 0 2.5-.217c1.255.67 2.595 1.52 3.992 2.522a37.926 37.926 0 0 1-4.784-.624 20.237 20.237 0 0 0-1.708-1.681Zm-2.378-.132c.34.056.689.085 1.066.113.5.378 1.02.831 1.548 1.35a16.564 16.564 0 0 1-2-.66 9.404 9.404 0 0 0-.614-.803Zm-.906 1.03c.292.16.613.32.953.472.35.529.68 1.142 1.01 1.823-.623-.425-1.18-.86-1.652-1.285a9.778 9.778 0 0 0-.302-1.01h-.01Zm-1.255 1.728c.038-.369.056-.727.066-1.068.226.255.462.52.745.775.142.623.236 1.313.302 2.059a14.112 14.112 0 0 1-1.104-1.776l-.01.01Zm-5.813-2.645c.378-.028.746-.066 1.076-.123-.208.246-.406.52-.604.803-.595.246-1.274.472-2.01.67.528-.519 1.047-.972 1.548-1.35h-.01Zm-1.311.019a18.923 18.923 0 0 0-1.708 1.681c-1.416.284-3.02.491-4.785.624 1.397-1.002 2.737-1.852 3.992-2.522.887.123 1.727.198 2.5.217Zm1.925-1.417c-.283.17-.576.35-.869.567-.217.01-.434.019-.641.019-.481 0-1-.029-1.529-.076a19.021 19.021 0 0 1 1.972-.765c.368.114.717.19 1.067.255Zm-.869-1.946c.293.218.586.407.869.567-.34.066-.699.151-1.067.255a16.322 16.322 0 0 1-1.972-.755 17.421 17.421 0 0 1 1.529-.076c.207 0 .424 0 .641.01Zm.718-1.52a9.4 9.4 0 0 0 .613.803c-.34-.057-.689-.095-1.066-.123-.5-.378-1.02-.831-1.548-1.35.736.198 1.406.415 2 .67ZM53.7 53.625s.01.038.02.057c.028.057.047.113.075.17.066.151.123.283.188.425.246.548.5 1.058.755 1.52a24.367 24.367 0 0 0-2.368-.632 38.495 38.495 0 0 1-2.83-3.665c1.556.69 2.962 1.398 4.17 2.116l-.01.01Zm4.454 2.465a9.274 9.274 0 0 0-.736-.774 15.547 15.547 0 0 1-.311-2.059c.443.614.802 1.2 1.104 1.766-.038.378-.057.727-.066 1.067h.01Zm1.784-1.208c-.17.33-.312.66-.425.982a10.215 10.215 0 0 0-.415-.963c.085-.633.226-1.313.425-2.05.198.727.34 1.407.424 2.04l-.01-.01Zm1.67.434c-.274.264-.519.52-.745.784 0-.34-.02-.69-.066-1.067.301-.567.67-1.162 1.103-1.776-.066.746-.17 1.436-.301 2.059h.009Zm1.425.963c-.35.152-.67.312-.972.482.113-.312.217-.652.302-1.01.481-.425 1.028-.86 1.66-1.285a17.04 17.04 0 0 1-.99 1.823v-.01Zm-6.37-.529c.085.36.19.69.302 1.011a9.931 9.931 0 0 0-.953-.472 16.13 16.13 0 0 1-1.01-1.823c.623.425 1.18.86 1.652 1.285h.01Zm7.634 5.261a10.419 10.419 0 0 0-.868-.566c.34-.066.699-.142 1.066-.255.623.189 1.284.444 1.973.765-.529.047-1.048.075-1.529.075-.208 0-.415 0-.642-.019Zm-2.293-9.284c-.538.68-1.01 1.35-1.406 1.983a20.38 20.38 0 0 0-.632-2.342c.264-.756.566-1.55.934-2.39.264-.614.566-1.247.878-1.889.18 1.681.255 3.25.226 4.647v-.01Zm-5.822.302c.029.86.104 1.662.217 2.409a22.335 22.335 0 0 0-2-1.389 37.013 37.013 0 0 1-1.397-4.41c1.217 1.17 2.293 2.304 3.18 3.39Zm3.275 14.432a14.744 14.744 0 0 1-.368-1.813c.17-.33.31-.661.424-.982.123.32.255.642.425.972a15.779 15.779 0 0 1-.425 2.04c-.019-.075-.038-.141-.056-.217Zm2.32 5.932a38.262 38.262 0 0 1-1.81-4.26c.273-.822.48-1.605.631-2.342.397.642.868 1.303 1.406 1.993.029 1.388-.047 2.937-.226 4.609Zm-26.222-8.472c3.283-1.55 6.454-2.806 9.38-3.722 1.745.539 3.406.954 4.934 1.238a46.583 46.583 0 0 0-4.199 2.814c-.82.038-1.66.057-2.538.057-2.388 0-4.945-.132-7.577-.387Zm18.92 5.506c-.463.491-.963.982-1.482 1.483a37.539 37.539 0 0 1 1.396-4.44 21.061 21.061 0 0 0 2-1.397 22.657 22.657 0 0 0-.226 2.418 29.71 29.71 0 0 1-1.698 1.936h.01Zm2.556-1.634c.538-.68 1.01-1.35 1.406-1.983.151.736.359 1.51.633 2.333-.453 1.313-1.067 2.748-1.812 4.26-.18-1.672-.255-3.221-.227-4.61ZM64.11 5.73a6.1 6.1 0 0 0 .122.264l.142.312c1.047 2.456 1.925 5.658 2.576 9.35-2.142 3.732-4.209 8.142-5.992 12.95-.52 1.407-1 2.805-1.434 4.175-.434-1.37-.916-2.758-1.435-4.175-1.774-4.808-3.84-9.218-5.992-12.95 1.51-8.613 4.303-14.554 7.427-14.554.141 0 .273.01.415.037 1.462.255 2.916 1.87 4.18 4.59h-.01ZM51.088 83.888c2.236-2.976 4.142-5.885 5.652-8.605.481 3.06 1.255 6.432 2.33 9.993a95.658 95.658 0 0 1-1.783 5.337c-1.604 4.344-3.463 8.397-5.407 11.891-.604-3.929-.953-8.359-.953-12.996 0-1.918.057-3.797.17-5.62h-.01Zm17.032 5.62c0 4.637-.35 9.067-.953 12.996-1.934-3.495-3.803-7.547-5.407-11.891a90.775 90.775 0 0 1-1.783-5.337c1.066-3.551 1.84-6.923 2.32-9.993 1.52 2.72 3.417 5.63 5.663 8.614.103 1.833.16 3.703.16 5.61Zm30.054 8.406c.038.132.076.264.113.387.048.18.104.368.151.548 0 .019 0 .038.01.047.613 2.55.5 4.458-.387 5.497a2.81 2.81 0 0 1-.293.293c-.5.416-1.179.623-2.028.623-3.105 0-7.889-2.644-13.117-6.998-.783-4.204-2.085-8.898-3.897-13.79a102.826 102.826 0 0 0-1.623-4.1c1.227.765 2.5 1.54 3.822 2.286 4.454 2.531 8.917 4.619 13.04 6.14 1.926 3.268 3.35 6.3 4.143 8.85.02.066.047.141.066.217Zm4.407-53.035c8.927 0 15.022 1.842 15.541 4.704.378 2.106-2.264 4.75-7.247 7.235-1.774.888-3.774 1.719-5.944 2.493-4.086-1.426-8.861-2.654-14.05-3.56a92.738 92.738 0 0 0-4.427-.662c1.312-.67 2.614-1.37 3.935-2.115 4.445-2.532 8.521-5.3 11.947-8.076h.254l-.009-.019Zm3.595 14.876a51.757 51.757 0 0 0 5.086-2.182c5.426-2.71 8.163-5.6 7.7-8.141-.585-3.287-6.407-5.29-15.617-5.394 1.491-1.265 2.85-2.53 4.03-3.778 4.152-4.373 5.727-8.01 4.416-10.248-.821-1.407-2.642-2.115-5.417-2.115-2.953 0-6.822.821-11.115 2.304 4.34-7.613 5.718-13.818 3.057-16.019-.66-.538-1.529-.822-2.576-.822-3.124 0-7.795 2.475-12.9 6.603.321-1.927.529-3.75.633-5.47.33-5.978-.84-9.756-3.303-10.644a3.314 3.314 0 0 0-1.151-.198c-3.161 0-7.38 4.203-11.38 10.834-.614-3.184-1.406-5.97-2.34-8.199-.01-.038-.029-.076-.038-.104-.076-.17-.151-.33-.217-.5a7.295 7.295 0 0 1-.18-.397c-.009-.028-.028-.047-.037-.076C63.289 1.99 61.467.26 59.533.26c-3.482 0-6.473 5.639-8.115 14.234-4.01-6.63-8.228-10.834-11.38-10.834-.406 0-.793.066-1.151.199-3.275 1.17-4.124 7.47-2.69 16.094-5.105-4.118-9.776-6.583-12.89-6.583-1.047 0-1.925.274-2.576.822-2.67 2.2-1.283 8.406 3.058 16.019-4.303-1.483-8.153-2.305-11.116-2.305-2.765 0-4.596.709-5.417 2.116-1.736 2.975 1.708 8.33 8.427 14.026-5.549.066-9.86.812-12.54 2.125-1.765.86-2.822 1.965-3.058 3.268-.604 3.372 4.492 7.245 12.767 10.333C4.54 62.806-.557 66.68.047 70.06c.595 3.287 6.398 5.28 15.598 5.393C8.927 81.15 5.473 86.504 7.22 89.48c.82 1.408 2.642 2.116 5.416 2.116 2.963 0 6.832-.831 11.135-2.314a50.087 50.087 0 0 0-2.482 4.911c-2.387 5.517-2.595 9.455-.594 11.117.66.548 1.528.822 2.576.822 3.114 0 7.785-2.465 12.89-6.583-1.435 8.623-.585 14.923 2.689 16.094.368.133.745.199 1.151.199 3.152 0 7.37-4.203 11.38-10.834 1.642 8.586 4.633 14.225 8.115 14.225s6.474-5.639 8.115-14.225c4.001 6.631 8.229 10.834 11.38 10.834.406 0 .793-.066 1.152-.199 3.274-1.171 4.123-7.471 2.689-16.094 5.096 4.118 9.766 6.583 12.89 6.583 1.057 0 1.925-.274 2.576-.822 1.576-1.303 1.774-4.023.632-7.81-.028-.114-.066-.218-.094-.331-.028-.085-.066-.18-.094-.274-.746-2.267-1.925-4.846-3.501-7.613 4.293 1.483 8.153 2.314 11.115 2.314 2.765 0 4.596-.708 5.417-2.116 1.736-2.975-1.708-8.33-8.427-14.026 9.201-.113 15.013-2.106 15.598-5.393.604-3.381-4.501-7.254-12.786-10.343l.019.038Z" mask="url(#a)"/>
</symbol>
</svg>








